<svg xmlns="http://www.w3.org/2000/svg" viewBox="0 0 520 100">
  <defs>
    <linearGradient id="hex" x1="0%" y1="0%" x2="100%" y2="100%">
      <stop offset="0%" stop-color="#0099ff"/>
      <stop offset="100%" stop-color="#b44fff"/>
    </linearGradient>
    <linearGradient id="lock" x1="0%" y1="0%" x2="0%" y2="100%">
      <stop offset="0%" stop-color="#33b4ff"/>
      <stop offset="100%" stop-color="#b44fff"/>
    </linearGradient>
    <filter id="glow" x="-30%" y="-30%" width="160%" height="160%">
      <feGaussianBlur stdDeviation="1.5" result="b"/>
      <feMerge><feMergeNode in="b"/><feMergeNode in="SourceGraphic"/></feMerge>
    </filter>
  </defs>

  <!-- Shield icon scaled to ~84px tall, centered on 0,8 → 84,92 -->
  <g transform="translate(0,2) scale(0.172)">
    <polygon points="256,30 466,150 466,362 256,482 46,362 46,150"
             fill="#0e1119" stroke="url(#hex)" stroke-width="14" filter="url(#glow)"/>
    <polygon points="256,80 416,170 416,342 256,432 96,342 96,170"
             fill="none" stroke="rgba(0,153,255,0.30)" stroke-width="2"/>
    <path d="M 210 245 L 210 195 C 210 152 302 152 302 195 L 302 245"
          fill="none" stroke="url(#lock)" stroke-width="22" stroke-linecap="round" filter="url(#glow)"/>
    <rect x="180" y="240" width="152" height="120" rx="14"
          fill="url(#lock)" filter="url(#glow)"/>
    <circle cx="256" cy="290" r="13" fill="#0e1119"/>
    <rect x="250" y="298" width="12" height="34" rx="3" fill="#0e1119"/>
    <g transform="translate(388,98)" filter="url(#glow)">
      <rect x="-26" y="-6" width="52" height="12" rx="2" fill="#ff8c00"/>
      <rect x="-6" y="-26" width="12" height="52" rx="2" fill="#ff8c00"/>
    </g>
  </g>

  <!-- Wordmark: "Security+" -->
  <text x="98" y="56"
        font-family="Orbitron, 'Courier New', monospace"
        font-size="34" font-weight="900"
        letter-spacing="1"
        fill="url(#hex)">Security+</text>

  <!-- Sub: "SY0-701" -->
  <text x="100" y="78"
        font-family="Orbitron, 'Courier New', monospace"
        font-size="14" font-weight="400"
        letter-spacing="3"
        fill="rgba(90,112,128,0.9)">SY0-701</text>
</svg>
